<svg width="364.824" height="125.612" xmlns="http://www.w3.org/2000/svg" viewBox="67.588 12.194 364.824 125.612" style="background:0 0" preserveAspectRatio="xMidYMid"><defs><filter id="editing-extrusion" x="-100%" y="-100%" width="300%" height="300%"><feFlood result="color1" flood-color="#f47131"/><feConvolveMatrix order="8,8" divisor="1" kernelMatrix="1 0 0 0 0 0 0 0 0 1 0 0 0 0 0 0 0 0 1 0 0 0 0 0 0 0 0 1 0 0 0 0 0 0 0 0 1 0 0 0 0 0 0 0 0 1 0 0 0 0 0 0 0 0 1 0 0 0 0 0 0 0 0 1" in="SourceAlpha" result="extrude"/><feComposite in="color1" in2="extrude" result="comp-extrude" operator="in"/><feOffset dx="4" dy="4" in="comp-extrude" result="offset-extrude"/><feMerge><feMergeNode in="offset-extrude"/><feMergeNode in="SourceGraphic"/></feMerge></filter></defs><g filter="url(#editing-extrusion)"><path d="M157.73 75.065q-.13.25-.25.47-.13.21-.19.46.25.25.47.54.22.28.22.59 0 .25-.1.47-.09.22-.03.4-.25.44-.53.82-.28.37-.41.81-.25.25-.4.5-.16.25-.28.5-.32.12-.41.41-.09.28-.34.46-.07.25-.63 1.19t-1.25 2q-.69 1.06-1.31 2.06-.63 1-.88 1.32-.12.31-.28.5-.15.18-.34.43-.13.19-.19.41-.06.22-.19.34-.12.25-.28.44-.15.19-.28.5-.62.81-1.25 1.94-.62 1.12-1.19 2-.31.5-.59 1-.28.5-.59 1-.32.5-.63.94-.31.43-.62.93-.5.38-.88.91-.37.53-.87.91-.82 0-1-.75-.82-.19-.82 0v.31q-.25.13-.34.38-.09.25-.34.37-.5-.12-.85-.41-.34-.28-.97-.21-.25-.38-.56-.66-.31-.28-.56-.6-.13-.37-.35-.62-.21-.25-.4-.5-.19-.31-.38-.56-.18-.25-.37-.5l-.85-1.1q-.4-.53-.71-1.09-.5-.75-.97-1.53t-.97-1.53q-.25-.38-.5-.75-.25-.38-.44-.75-.12-.32-.34-.75-.22-.44-.53-.57-.13-.5-.44-.75t-.63-.62q-.43-.5-.81-1.09l-.75-1.22q-1.25-1.75-2.34-3.44-1.1-1.69-2.16-3.5.31-1 .31-1.5t.32-.81q0-.25.12-.75.81-1.38 1.56-2.5.69-1.07.97-1.75.28-.69.6-1.44.31-.19.5-.47.18-.28.5-.53.12-.69.56-1.16.44-.47.56-1.15.56-.44.63-1 .81-.57 1-1.5.5-.5.84-1.13.34-.62.66-1.31.75-.63 1.18-1.63.38-.25.57-.68.18-.44.5-.75.5-.82.78-1.35.28-.53.59-1.09.44 0 .56-.31.13-.32.5-.25 0-.57.32-1 .12-.07.37-.16t.25-.22q-.12-.75.06-.87.19-.13.32-.25.68.12.93.18.25.07.82.44.62 0 .87.25t.56.38q.25.25.41.5.16.25.47.37.5.69 1.06 1.5t1.06 1.5q.69.94 1.41 1.78.72.85 1.34 1.85.19.31.69 1.09.5.78 1.13 1.66.62.87 1.12 1.59.5.72.69.84.19.32.81 1.19.63.88 1.34 1.85.72.96 1.41 1.84.69.87.94 1.12.69.94 1.03 1.54.34.59.66 1.28zm-14.32 11.75q.69-.94 1.07-1.69.37-.75.75-1.5.62-.75.75-1.06.12-.32.31-.63.5-.75 1.03-1.5t.84-1.62q.38-.25.57-.63.18-.37.56-.69-.38-1.31-.88-2.03-.5-.72-1-1.4-.18-.32-.37-.63l-.38-.62q-.25-.19-.4-.38-.16-.19-.35-.37-.12-.32-.37-.82-.25-.31-.5-.56-.25-.25-.44-.62-.25-.25-.62-.69-.38-.44-.79-.97-.4-.53-.71-1-.32-.47-.5-.78-.13-.31-.22-.53-.1-.22-.22-.47-.31-.44-.63-.78-.31-.35-.62-.78-.19.12-.35.15-.15.03-.28.16-.43.81-.97 1.5-.53.69-1.03 1.5-.43.75-.87 1.53t-.88 1.53q-.31.44-.59.85-.28.4-.59.9-.32.44-.54.91-.21.47-.53.9-.5.63-.81 1.13-.31.5-.62 1.19.18.37.59 1.03.41.65.84 1.31.44.66.78 1.22.35.56.41.75.5.44.81.97.32.53.82 1.03.25.5.56.87.31.38.62.82.32.43.82 1.28.5.84 1 1.72.5.87 1 1.62.5.75.81.94.62-.69 1.03-1.53.41-.85 1.09-1.53zm41.88 2.37q.44.56.53.91.09.34.22.69.12.34.22.65.09.31.09.38 0 .43-.16.72-.15.28-.46.71-2.5.94-4.94 1.85-2.44.9-5 1.78-.69.19-1.25.41-.56.21-1.25.34-.13.12-.41.22-.28.09-.65.22-.38.12-.72.22-.35.09-.47.09-.5.12-1.1.09-.59-.03-1.15.03-.31.07-.44.32-.12.25-.28.53-.16.28-.47.5-.31.22-.87.22-.57 0-1.13-.06-.56-.07-1.19-.32-.12-.19-.09-.47.03-.28-.09-.47-.57-.06-.88.1-.31.15-.62.22-.19-.25-.29-.6-.09-.34-.34-.59-.06-.31-.06-.63v-.62q0-.44.03-1.03.03-.6.22-.91.19-3.56.19-7.12v-7.13-.97q0-.59-.04-1.22-.03-.62-.06-1.15-.03-.53-.09-.78.06-.44.06-.85v-.84-.69q0-.31-.12-.62.06-.25.06-.69 0-.31-.06-.63-.07-.31-.07-.62 0-.5.03-.97.04-.47.04-.97 0-1.62-.16-3.22-.16-1.59-.16-3.22 0-2.12-.03-4.25-.03-2.12-.09-4.25.25-.62.25-1.06.87-.44 1.37-.31.5.12 1 .12.32 0 .57-.06.25-.06.5-.19.31.07.53.16.22.09.53.09.94-.18 1.03-.06.09.13.28.25.25-.06.41-.22.15-.15.4-.15.38 0 .57.47.18.46.43.78 0 .68.25 1.25.13 2.56.1 5.06-.03 2.5.15 5 .07 1.12.16 2.34.09 1.22.09 2.35 0 1.87.03 3.78.04 1.9.04 3.84 0 .31.03.56.03.25.03.57 0 .75-.06 1.43-.07.69-.07 1.38v4.87q0 .63-.03 1.29-.03.65.03 1.28l.25.75q.69-.25 1.41-.53.72-.29 1.53-.41.5-.13.94-.25.44-.13.94-.25.87-.5 1.37-.69.5-.19 1-.37 1.06-.38 2.06-.78 1-.41 2.07-.79.5.13.81-.12.62.12 1.12.12.69.69.85 1.07.15.37.47.68-.13.32.03.38.15.06.22.31.25.13.06.35-.19.21-.25.4zm30.31-33.56q-.69 1.25-1.56 2.94-.88 1.68-1.38 2.93-.18.44-.34.85-.16.4-.34.84-.32.94-.79 1.78-.46.85-.84 1.78-.56 1.25-1.16 2.54-.59 1.28-1.15 2.65-.63 1.25-.97 2.16-.34.9-.72 1.84-.37.94-.66 1.85-.28.9-.46 1.65-.57 1-.94 1.5-.13 1.13-.25 2.25-.13 1.13-.13 2.31 0 .57.1 1.1.09.53.15 1.09.07.81.03 1.6-.03.78.04 1.59.06 1.56.15 3.09.1 1.53.16 3.16.06 1.12-.1 1.91-.15.78-.09 1.59-.19.13-.41.19-.21.06-.4.19-.69 0-.91-.04-.22-.03-.4.1-.57-.38-.63-.35-.06.04-.12.04-.75-.25-.82-.38-.06-.12-.25-.25-.68 0-1.12.19-.19-.13-.31-.25-.13-.13-.32-.25-.56-.07-.93-.16-.38-.09-.63-.22-.19-.5-.41-.87-.21-.38-.21-1 0-.5.12-.94.13-.44.19-.94 0-.31-.03-.56-.03-.25-.03-.56 0-.32.12-.82-.19-1.43-.16-3.03.04-1.59.04-3.03 0-1.44-.25-2.69.06-.81 0-1.15-.07-.35-.07-.72 0-.31.07-.66.06-.34.06-.65 0-.07-.1-.66-.09-.59-.21-1.25-.13-.66-.25-1.25-.13-.59-.13-.72-.62-1.12-.94-2.12-.31-1-.68-1.69l-.5-1q-.25-.5-.44-1.06-.13-.32-.22-.69-.09-.38-.22-.69-.25-.5-.47-1.09-.22-.6-.53-.97-.25-.56-.47-1.03-.22-.47-.22-.91-.18-.75-.59-1.34-.41-.6-.72-1.22-.19-.38-.28-.69-.09-.31-.22-.62-.12-.25-.34-.63-.22-.37-.47-.56-.13-.56-.44-1-.31-.44-.44-1-.31-.44-.68-.88-.25-.93-.69-1.71-.44-.79-.81-1.66.25-1.31 1.43-1.63.63-.75.75-.81.13-.06.57-.06.37-.31.75-.53.37-.22.87-.1.06-.25.34-.43.29-.19.54-.19.37 0 .65.37.28.38.6.57.5.87 1.03 1.68.53.82.9 1.69.44.88.78 1.75.35.88 1.04 1.69.31 1.25.96 2.34.66 1.1 1.1 2.35.31.75.72 1.47.4.71.72 1.53.18.37.31.75.12.37.25.75.12.31.25.81.12.5.31.81.44-.44.75-1.12.44-.88.91-1.66.47-.78.84-1.66.5-.81.72-1.68.22-.88.53-1.75.13-.32.28-.63.16-.31.28-.69.19-.37.32-.75.12-.37.25-.75.43-1.18.96-2.34.54-1.16 1.1-2.34.06-.19.28-.57.22-.37.5-.78.28-.4.53-.72.25-.31.44-.43.12-.13.4-.16.29-.03.47-.09.57 0 .82.31.75.31 1.12.44.38.12.56.56.94.62 1.41.72.47.09.72.53.69.44.81.62.13.19.25.38zm46.63 44.06q-.32.32-.69.38-.38.06-.75.06-.94.44-2 .44-.69-.38-.75-.25-.06.12-.25.25-.94.44-1.69.47-.75.03-1.25.34-.5-.37-.53-1.09-.03-.72-.16-1.22-.31-.44-.43-1.1-.13-.65-.19-1.34-.06-.69-.16-1.34-.09-.66-.34-1.16-.06-.31-.03-.56.03-.25-.1-.57.07-1.06-.06-1.68l-.25-1.32q-.06-.37-.06-.84t-.38-.72q.19-.87.07-1.31-.13-.44-.19-.81-.06-.5-.06-1.1 0-.59-.13-1.09-.37-3-.81-6-.44-3-.81-6-.38.31-.54.94-.15.62-.28 1.12-.37 1.13-.68 2.31-.32 1.19-.63 2.32-.12.5-.22 1.15-.09.66-.28 1.16-.62 1.81-1.09 3.12-.47 1.32-.91 2.69-.12.75-.25 1.44-.12.69-.25 1.37-.06.38-.19 1.07-.12.68-.25 1-.12.31-.22.43-.09.13-.03.44-.62.94-.84 2.06-.22 1.13-.78 2.19 0 .75-.56 1.31l-.6.13q-.28.06-.59.25-.31-.13-.72-.16t-.78-.03q-.31-.06-.56-.22-.25-.15-.57-.22-.31-.37-.68-.65-.38-.28-.75-.6-.38-.93-.69-1.25-.19-.68-.5-1.28-.31-.59-.44-1.34-.19-.69-.47-1.28-.28-.6-.59-1.28-.13-.44-.28-.85-.16-.4-.35-.84-.06-.5-.34-1.25t-.41-1.31q0-.07-.22-.66-.21-.59-.43-1.28-.22-.69-.44-1.25t-.28-.63q-.13-.31-.22-.59-.09-.28-.22-.66-.25-.81-.62-1.65-.38-.85-.75-1.6-.32-.62-.44-1.21-.13-.6-.31-1.16-.13-.31-.22-.56-.1-.25-.22-.57-.13-.37-.25-.78-.13-.4-.25-.84-.31.12-.28.53.03.41-.03.72-.13.69-.13 1.34 0 .66-.06 1.35-.13.75-.25 1.43-.13.69-.19 1.38 0 1.69-.19 3.37-.12 1.5-.31 3.04-.19 1.53-.25 3.15 0 1.19-.25 2.35-.25 1.15-.12 2.4-.13.25-.13.38v.37q0 .31-.03.69-.03.37-.03.69 0 .56.12.75-.18.56-.18 1.22v1.28q-.13.25-.16.5t-.22.5q.06 1.06-.62 1.06-.19 0-.41-.09-.22-.1-.34-.28-.69.06-.79-.32-.09-.37-.4-.31-.75.31-.85.19-.09-.13-.4-.06-.5-.51-.66-.44-.15.06-.28.06-.56-.19-.62-.09-.07.09-.25.09-.32-.31-.85-.31t-.9-.07q-.07-.25-.1-.46-.03-.22-.03-.54 0-.37.03-.71.03-.35.03-.72 0-.32-.03-.66t-.03-.78q0-.44.06-.84.07-.41.07-.91 0-.19-.07-.34-.06-.16-.06-.41.38-.81.34-1.28-.03-.47.04-.91.12-1.06.21-2.09.1-1.03.22-2.1 0-1.75.1-2.9.09-1.16.28-2.35.12-.56.22-1.06.09-.5.22-1.06.12-.94.15-1.97t.16-2.03q.12-1.56.31-3.09.19-1.54.31-3.04.13-1.18.28-2.34.16-1.16.16-2.22 0-.56.16-1.44.15-.87.22-1.5.12-1.5.21-2.93.1-1.44.1-2.88v-.69q0-.12.12-.25.13-.12.13-.43 0-.57.28-.78.28-.22.47-.72.31 0 .72.06.4.06.59.37.44-.12.88-.12.43 0 .75-.31.37 0 .56.18.19.19.5.32.25-.13.5-.22.25-.1.5-.22.19.12.28.28.09.16.28.22.94-.25 1.25-.06.13.25.16.5t.09.5q.63.62.81 1.4.19.78.69 1.41.13.37.28.75.16.37.28.87l.19.75q.25.63.63 1.5.31 1.19.56 2.44.25 1.25.81 2.31.06.38.22.91t.28.91q.44 1.06.91 2.09.47 1.03.84 2.22.38 1.19.66 2.44t.72 2.43q.37 1.13.56 1.63.19.5.5 1 0 .19.09.62.1.44.28.91.19.47.38.88.19.4.37.46.19-.12.22-.37t.22-.44q.06-.69.22-1.69t.47-1.62q0-.31.15-1.16.16-.84.41-1.81.25-.97.47-1.78.22-.81.41-1 .12-.81.21-1 .1-.19.22-.31.07-.5.25-.94.19-.44.25-.94.13-1.06.32-1.75.18-.69.5-1.69.25-.87.46-1.78.22-.9.54-1.78.75-2.37 1.34-4.22.59-1.84 1.47-3.59.19-.56.31-.69.13-.12.25-.25.5-.19 1.03-.19t1.1.07q.62-.25.93-.57.25.32.75.32.63 0 .88-.38.25.13.4.06.16-.06.47.07.13-.13.32-.28.18-.16.37-.16.5.62.78.97.28.34.41.78.19.56.22 1.22.03.65.34 1.22-.06.81.09 2.47.16 1.65.38 3.5.22 1.84.47 3.4.25 1.56.44 1.94-.07.81.06 1.37.12.57.12 1.13 0 .19.07.78.06.59.12 1.25t.16 1.25q.09.59.15.84 0 1.13.38 1.75.31 1.57.53 3.13.22 1.56.41 3.19.12.81.15 1.56t.16 1.56q.06.31.15.63.1.31.16.62.13.63.19 1.19.06.56.19 1.12.06.32.18.66.13.34 0 .72.13.44.1.94-.03.5.22.87 0 1.31.18 2.31.07.75.38 1.5.12.75.22 1.57.09.81.22 1.62zm10.75-45.25q.25-.06.43-.19.19-.12.44-.12.19.06.28.25.1.19.28.31.19-.12.35-.25.15-.12.34-.19.63.19.69.63.31.12.56.28.25.16.56.22.13.25.32.37.18.13.43.38.63.12 1.66.69 1.03.56 1.66.87.62.31 1.25.63.62.31 1.18.68.57.32 1.13.72.56.41 1.19.66.56.69 1.43.87.88.19 1.57.69.56.31 1.06.66.5.34 1 .65.19.32.47.5.28.19.53.5 1.25.69 1.44 1.07l.56.37q.37.25.75.53.37.28.69.57.31.28.37.53-.25.56-.25.9 0 .35-.25.6.38.5.38.93-.32.75-1.07 1.25-.18.5-.59.79-.41.28-.53.78-.5.31-.6.5-.09.18-.21.37-1.19 1.25-2.22 2.16-1.03.9-1.91 1.97-.62.31-1.06.78-.44.47-.81 1.03l-.97.97q-.47.47-.97.9-.13.25-.41.41-.28.16-.4.47-.69.31-1.13.87-.44.57-1.06.94l-.44.63q-.19.12-.53.4t-.69.63q-.34.34-.59.65-.25.32-.31.5-.19.07-.6.38-.4.31-.81.69-.41.37-.75.75-.34.37-.41.5l-.62.43q.06 1.69.09 3.41.03 1.72.03 3.41v2.12l-.43.56q-.32 0-.5-.12-.19-.13-.44-.13t-.47.25q-.22.25-.41.38-.43.06-.72.22-.28.15-.59.28-.37-.19-.75-.19-.81.19-.78.06.03-.12-.28-.12-.5.5-.63.5-.25 0-.47.06-.21.07-.46.07-.25-.51-.41-1.04-.16-.53-.59-1.03.18-.62-.07-.87.38-.69.32-1.57-.07-.87-.07-1.62 0-.44.03-.84.04-.41.04-.79 0-.75-.13-1.53-.12-.78-.12-1.59 0-1.88.12-3.78.13-1.91.13-3.78 0-1.07-.1-2.19-.09-1.13-.09-2.19 0-.69.06-1.28.06-.59.13-1.16 0-2.87.09-5.53.09-2.65.09-5.28 0-.87-.03-1.65-.03-.79-.03-1.66 0-.44.06-.88.07-.43.07-.87.18-1.94.18-3.88l-.06-1q.25-.37.75-.37.69 0 1.06.44.44-.07.85-.16.4-.09.78-.09.56 0 .94.37zm3.81 9.75l-.13.19q0 .31-.06.47-.06.15-.12.28 0 .19.03.41.03.21.03.46 0 1.44-.03 2.85-.03 1.4-.03 2.78l-.13 3.31q0 .31.06.69.07.37.07.69 0 .31-.07.62-.06.31-.06.63 0 .81.19 1.62.31-.12.44-.4.12-.29.31-.47 1.44-1.32 2.69-2.75 1.25-1.44 2.56-2.88 1.12-1.19 1.94-1.94.81-.75 1.25-1.81-1.07-.69-2.19-1.4-1.13-.72-2.38-1.22-.06-.13-.34-.32-.28-.18-.59-.34-.32-.16-.63-.28-.31-.13-.44-.13-.56-.5-1.18-.62-.44 0-.75-.16-.32-.15-.44-.28zm32.19-6.81q0 .56-.38.84-.37.28-.69.72-.62.56-1.09 1.16-.47.59-1.09 1.15-.25.25-.69.66-.44.41-.91.81-.47.41-.94.72-.46.31-.78.31-.5 0-1.28-.34t-1.34-.47q-.44-.06-.78-.09-.35-.03-.66-.35-1.12-.25-1.44-.78-.31-.53-.68-1.09 0-.25.18-.31.19-.07.32-.25.62-.82 1.06-1.35.44-.53 1-1.09 1.06-.94 2.03-1.94.97-1 2.03-1.87.5-.07.75-.38t.75-.31q.5 0 .84.31.35.31.63.72t.56.81q.28.41.66.6.44.31 1.19.81t.75 1zm-8.57 11.62q.44.25.66.66.22.41.66.59.37.19.81.19.44 0 .75.13.25.12.37.31.13.19.25.37.38.32 1.16.57.78.25 1.03.56.44.56.66 1.44.22.87.34 1.84.13.97.19 1.94t.19 1.65q.12 1.44.31 2.85.19 1.4.19 2.84t-.13 2.94q-.12 1.5-.12 2.94 0 .75-.04 1.87-.03 1.13-.53 1.75-.06.25-.06.88v2q0 .37.06.75.07.37.07.81 0 .69-.38 1-.19-.06-.41-.06h-.4q-.69 0-1 .25-.69-.06-1.31-.13-.63-.06-1.32-.06-1.06 0-2.31.31-.25-.62-.22-1.31.03-.69-.28-1.25-.06-.19-.09-.34-.03-.16-.03-.35.18-.75.18-1.03v-.59q0-.88-.06-1.78-.06-.91.06-1.79 0-.31.1-.56.09-.25.09-.56 0-.31-.12-.44-.13-.12-.13-.31t.03-.63q.03-.43.16-.56 0-.5.03-.97t.03-.9q0-1-.06-2t-.06-1.94q0-.44-.07-.56-.06-.13-.12-.19t-.19-.09q-.12-.04-.19-.22.25-2.75-.18-5.5-.44-2.75-.44-5.57 0-.43.12-.65.13-.22.32-.35.18-.12.34-.28.16-.15.22-.47.5.13.87 0zm27.44-16.5l.13.07q.31 1.12.62 2.22.31 1.09.75 2.15.94.13 1.16.19.22.06.53.19.69 1.62.84 3.47.16 1.84.47 3.59 1.19 1.56 1.72 3.34.53 1.78 1.22 3.6.19.62.25.78.06.15.06.28.38 1.06.75 2.19.38 1.12.81 2.18.19.57.41 1.1.22.53.41 1.03.18.62.34 1.28.16.66.34 1.28.44 1.25.94 2.5l1 2.5q.19.44.72 1.94t1.09 3.16q.57 1.65 1.03 3.06.47 1.4.47 1.72 0 .5.1 1.03.09.53.15 1.09-.25.63-.62.69-.38.06-.69-.06-.31.12-.59.25-.28.12-.53.25-.19.06-.32.18-.12.13-.31.13-.75 0-.97.16-.22.15-.65.15-.57-.18-.72-.03-.16.16-.28.22-.25.13-.57.13-.31 0-.62.06-.13-.25-.22-.5t-.28-.57q-.69-1-.97-1.93-.28-.94-.47-1.5-.31-.69-.53-1.38-.22-.69-.53-1.37-.38.12-.69.28-.31.15-.5.4-.75 0-.75.19t-.12.38q-.38.12-.6.25-.22.12-.72.06-.31.31-.62.53-.31.22-.81.28-.5.5-1.04.85-.53.34-1.21.15-.88.19-1.75.35-.88.15-1.75.15-1-.31-1.25-.56-.25-.25-.75-.25.06-.88-.38-1.19 0-.19.03-.59.03-.41.16-.53.81-.38.94-.82.12-.43.68-.56.13-.25.28-.47.16-.22.29-.47.31-.12.53-.18.22-.07.34-.38.31 0 .94-.4.62-.41.81-.66.5-.19.63-.34.12-.16.31-.29.62.07.81-.12.5.25 1.13.25.25 0 .43-.03.19-.03.44-.03.5-.5 1.28-.66.78-.16 1.28-.66-.18-.5-.31-1.21-.12-.72-.44-1.16-.12-.81-.4-1.56t-.47-1.44q-.69-2.63-1.63-5.13-.93-2.5-1.56-5.12-.12-.31-.28-.66-.16-.34-.28-.65-.31.75-.31.84 0 .09-.13.22-.06.31-.12.53-.07.22-.19.53-.19.5-.35 1.1-.15.59-.28 1.09-.31 1.06-.56 2.22-.25 1.15-.56 2.28-.63 1.94-1.28 3.84-.66 1.91-1.28 3.85-.13.87-.29 1.34-.15.47-.31.94-.15.47-.25.9-.09.44-.09.69-.88 2-1.47 4.06-.59 2.07-1.47 4-.25.13-.44.32-.18.19-.43.19-.5 0-.54-.25-.03-.26-.28-.26t-.43.1q-.19.09-.38.22-.31-.13-.72-.16-.4-.03-.59-.28-.44.31-.88.31-.5 0-1-.31-.37.12-.75.12-.18 0-.43-.06t-.38-.19q-.06-.25-.06-.5v-.56q0-.62-.13-.94 1.13-3.18 2.19-6.46 1.06-3.29 2.13-6.66.56-1.56 1.09-3.06t1.03-3.07q.25-.87.44-1.65.19-.78.5-1.53.5-1.63 1.03-3.28.53-1.66.97-3.29.25-.18.31-.43t.19-.57l-.06-.81q.43-.62.59-1.09.16-.47.22-.97.31-.75.56-1.63.25-.87.38-1.62.12-1 .15-2.28.03-1.28.35-2.16.12-.25.21-.34.1-.1.1-.41l.28-.28q.16-.16.22-.34.31-.5.22-.88-.1-.37-.1-.81.57-.31.5-.56-.06-.25-.06-.5 0-.32.41-.6.4-.28.53-.59.37.06.75.09.37.03.75-.03.44.81 1.06.81zm20.06 48.13q-.25-.25-.25-.69 0-.31.03-.53.04-.22.1-.53.31-1.44.31-2.91 0-1.47.13-2.9.06-.88.09-1.75.03-.88.03-1.75 0-5.19-.31-10.35-.31-5.15-.31-10.4 0-3.63.12-7.28.13-3.66.19-7.35.56-.31 1.37-.25.82.06 1.32-.56.31-.06.62-.03t.63.03q.68 0 1.31-.44.62-.44 1.37-.75.38.13.53.1.16-.04.35-.04.19 0 .81.44.63.44 1.38 1 .75.56 1.4 1.06.66.5.85.63 1.56 1.19 2.78 2.59 1.22 1.41 2.4 2.85 1.13 1.43 2.44 2.9t2.56 2.72q.44.5.91.88.47.37.91.87.18.25.34.53.16.28.34.6.38.43.88.75.5.31.94.75.31.25.93 1 .63.75.63 1.12 0 .25-.13.44-.12.19-.25.44-.06.18-.06.56 0 .37-.06.5-.63.5-.69.62-.06.13-.19.25-.18.25-.47.41-.28.16-.4.47-.13.19-.1.37.04.19-.09.44-.31.69-1 1.31-.69.63-1.19 1.38-.68 1.12-1.37 2.25-.69 1.12-1.56 2.19-.38.5-.79.97-.4.46-.78.96-.31.38-.56.79l-.56.9q-.69.88-1.31 1.72-.63.84-1.32 1.72-.75 1.06-1.62 2.09-.88 1.03-1.56 2.1-.69 1.12-1.44 2.06t-1.63 1.81q-.25.19-.62.57-.38.37-.75.37-.25 0-.41-.19-.15-.18-.47-.18-.06 0-.37.06t-.75.12l-1.13.13q-1 .5-1.43.47-.44-.03-.88.03-.25.06-.41.19-.15.12-.34.12-.44 0-.69-.41-.25-.4-.75-.34zm18.75-27q0-.31-.59-.88-.59-.56-.91-.81-.43-.37-1.03-.72-.59-.34-.97-.78-.31-.37-.59-.78-.28-.41-.59-.78-1.13-1.25-2.29-2.5-1.15-1.25-2.03-2.75-.56-.38-1.06-.88t-1.19-.81q-.12.38-.09.78.03.41.03.78 0 1.44-.12 2.82-.13 1.37-.13 2.75 0 3.37.16 6.65.15 3.28.15 6.6 0 1.25.03 2.5.04 1.25.22 2.5-.12.37-.12.68 0 .32.12.82.5-.32.85-.78.34-.47.65-.91 1.07-1.38 2.1-2.78 1.03-1.41 2.09-2.85.69-.93 1.41-1.84t1.4-1.91q.19-.25.6-.87.4-.63.81-1.28.41-.66.75-1.22.34-.56.34-.75z" fill="#fffe37"/></g><style></style></svg>