<svg width="69.215" height="125.612" xmlns="http://www.w3.org/2000/svg" viewBox="215.392 12.194 69.215 125.612" style="background:0 0" preserveAspectRatio="xMidYMid"><defs><filter id="editing-extrusion" x="-100%" y="-100%" width="300%" height="300%"><feFlood result="color1" flood-color="#f47131"/><feConvolveMatrix order="8,8" divisor="1" kernelMatrix="1 0 0 0 0 0 0 0 0 1 0 0 0 0 0 0 0 0 1 0 0 0 0 0 0 0 0 1 0 0 0 0 0 0 0 0 1 0 0 0 0 0 0 0 0 1 0 0 0 0 0 0 0 0 1 0 0 0 0 0 0 0 0 1" in="SourceAlpha" result="extrude"/><feComposite in="color1" in2="extrude" result="comp-extrude" operator="in"/><feOffset dx="4" dy="4" in="comp-extrude" result="offset-extrude"/><feMerge><feMergeNode in="offset-extrude"/><feMergeNode in="SourceGraphic"/></feMerge></filter></defs><g filter="url(#editing-extrusion)"><path d="M266.956 74.345q-.13.25-.25.47-.13.21-.19.46.25.25.47.54.22.28.22.59 0 .25-.1.47-.09.22-.03.4-.25.44-.53.82-.28.37-.41.81-.25.25-.4.5-.16.25-.28.5-.32.12-.41.41-.09.28-.34.46-.07.25-.63 1.19t-1.25 2q-.69 1.06-1.31 2.06-.63 1-.88 1.32-.12.31-.28.5-.15.18-.34.43-.13.19-.19.41-.06.22-.19.34-.12.25-.28.44-.15.19-.28.5-.62.81-1.25 1.94-.62 1.12-1.19 2-.31.5-.59 1-.28.5-.59 1-.32.5-.63.94-.31.43-.62.93-.5.38-.88.91-.37.53-.87.91-.82 0-1-.75-.82-.19-.82 0v.31q-.25.13-.34.38-.09.25-.34.37-.5-.12-.85-.41-.34-.28-.97-.21-.25-.38-.56-.66-.31-.28-.56-.6-.13-.37-.35-.62-.21-.25-.4-.5-.19-.31-.38-.56-.18-.25-.37-.5l-.85-1.1q-.4-.53-.71-1.09-.5-.75-.97-1.53t-.97-1.53q-.25-.38-.5-.75-.25-.38-.44-.75-.12-.32-.34-.75-.22-.44-.53-.57-.13-.5-.44-.75t-.63-.62q-.43-.5-.81-1.09l-.75-1.22q-1.25-1.75-2.34-3.44-1.1-1.69-2.16-3.5.31-1 .31-1.5t.32-.81q0-.25.12-.75.81-1.38 1.56-2.5.69-1.07.97-1.75.28-.69.6-1.44.31-.19.5-.47.18-.28.5-.53.12-.69.56-1.16.44-.47.56-1.15.56-.44.63-1 .81-.57 1-1.5.5-.5.84-1.13.34-.62.66-1.31.75-.63 1.18-1.63.38-.25.57-.68.18-.44.5-.75.5-.82.78-1.35.28-.53.59-1.09.44 0 .56-.31.13-.32.5-.25 0-.57.32-1 .12-.07.37-.16t.25-.22q-.12-.75.06-.87.19-.13.32-.25.68.12.93.18.25.07.82.44.62 0 .87.25t.56.38q.25.25.41.5.16.25.47.37.5.69 1.06 1.5t1.06 1.5q.69.94 1.41 1.78.72.85 1.34 1.85.19.31.69 1.09.5.78 1.13 1.66.62.87 1.12 1.59.5.72.69.84.19.32.81 1.19.63.88 1.34 1.85.72.96 1.41 1.84.69.87.94 1.12.69.94 1.03 1.54.34.59.66 1.28zm-14.32 11.75q.69-.94 1.07-1.69.37-.75.75-1.5.62-.75.75-1.06.12-.32.31-.63.5-.75 1.03-1.5t.84-1.62q.38-.25.57-.63.18-.37.56-.69-.38-1.31-.88-2.03-.5-.72-1-1.4-.18-.32-.37-.63l-.38-.62q-.25-.19-.4-.38-.16-.19-.35-.37-.12-.32-.37-.82-.25-.31-.5-.56-.25-.25-.44-.62-.25-.25-.62-.69-.38-.44-.79-.97-.4-.53-.71-1-.32-.47-.5-.78-.13-.31-.22-.53-.1-.22-.22-.47-.31-.44-.63-.78-.31-.35-.62-.78-.19.12-.35.15-.15.03-.28.16-.43.81-.97 1.5-.53.69-1.03 1.5-.43.75-.87 1.53t-.88 1.53q-.31.44-.59.85-.28.4-.59.9-.32.44-.54.91-.21.47-.53.9-.5.63-.81 1.13-.31.5-.62 1.19.18.37.59 1.03.41.65.84 1.31.44.66.78 1.22.35.56.41.75.5.44.81.97.32.53.82 1.03.25.5.56.87.31.38.62.82.32.43.82 1.28.5.84 1 1.72.5.87 1 1.62.5.75.81.94.62-.69 1.03-1.53.41-.85 1.09-1.53z" fill="#0074e4"/></g><style></style></svg>